<svg xmlns="http://www.w3.org/2000/svg" xmlns:xlink="http://www.w3.org/1999/xlink" width="44" height="44" viewBox="0 0 44 44">
  <defs>
    <clipPath id="clip-path">
      <rect id="Rectangle_2" data-name="Rectangle 2" width="26.54" height="14.783" transform="translate(0 0)" fill="#fff"/>
    </clipPath>
  </defs>
  <g id="Group_5" data-name="Group 5" transform="translate(-1847 -1014)">
    <g id="Ellipse_2" data-name="Ellipse 2" transform="translate(1847 1014)" fill="none" stroke="#fff" stroke-width="3">
      <circle cx="22" cy="22" r="22" stroke="none"/>
      <circle cx="22" cy="22" r="20.5" fill="none"/>
    </g>
    <g id="Group_4" data-name="Group 4" transform="translate(1856 1029)">
      <g id="Group_3" data-name="Group 3" transform="translate(0 0)" clip-path="url(#clip-path)">
        <path id="Path_46" data-name="Path 46" d="M13.2,11.355c2.394-2.418,4.642-4.692,6.9-6.961,1.241-1.25,2.483-2.5,3.74-3.734C24.65-.136,25.4-.2,26.062.422s.643,1.5-.16,2.309Q20.2,8.462,14.464,14.168a1.469,1.469,0,0,1-2.389,0Q6.3,8.436.563,2.663A1.5,1.5,0,0,1,.448.422C1.1-.2,1.878-.144,2.672.646Q7.545,5.49,12.39,10.362c.271.272.491.6.812.993" transform="translate(0 0)" fill="#fff"/>
      </g>
    </g>
  </g>
</svg>
