<svg id="Layer_2" data-name="Layer 2" xmlns="http://www.w3.org/2000/svg" width="24.089" height="25.529" viewBox="0 0 24.089 25.529">
  <g id="Layer_1" data-name="Layer 1">
    <path id="Path_44" data-name="Path 44" d="M21.551,25.529H7.957C6.044,24.9,5.465,24.093,5.464,22.05V19.219c-.884,0-1.689.018-2.492,0a2.877,2.877,0,0,1-2.722-1.8A6.41,6.41,0,0,1,0,16.578V2.542A11.663,11.663,0,0,1,.6,1.208,3.193,3.193,0,0,1,2.431,0h13.7c2.431.585,2.642,2.431,2.471,4.525.939,0,1.8-.011,2.652,0a2.823,2.823,0,0,1,2.624,1.922c.081.241.138.49.207.735v15.7A3.1,3.1,0,0,1,21.551,25.529ZM7.637,14.971v7.4c0,.738.213.953.946.953H20.9c.781,0,.981-.2.981-.97V7.665c0-.747-.209-.958-.943-.959H8.62c-.774,0-.985.209-.986.977Q7.636,11.327,7.637,14.971ZM16.411,4.522a2.116,2.116,0,0,0,.042-.242V3.121c0-.69-.224-.911-.926-.911H3.16c-.739,0-.944.2-.944.949V16.193c0,.442.162.8.626.819.859.041,1.72.012,2.633.012V16.37c0-2.926-.008-5.857,0-8.779A2.867,2.867,0,0,1,8.551,4.53h4.8Z" fill="#fff"/>
  </g>
</svg>
