<svg xmlns="http://www.w3.org/2000/svg" width="520.486" height="111.846" viewBox="0 0 520.486 111.846">
  <g id="Group_1" data-name="Group 1" transform="translate(-700 -118)">
    <g id="Layer_2" data-name="Layer 2" transform="translate(700 118.031)">
      <g id="Layer_1" data-name="Layer 1" transform="translate(0 -0.031)">
        <path id="Path_10" data-name="Path 10" d="M57.826,111.621c-1.867.156-3.35.194-4.254.194A53.554,53.554,0,0,1,0,58.248V56.782H0V-.018H0C17.943-.3,62.216,3.611,86.61,37.584A53.6,53.6,0,0,1,92.876,88.6h0a33.313,33.313,0,0,1-16.591,18.167,41.69,41.69,0,0,1-5.306,2.172c7.795-29.849-2.4-73.091-47.678-93.873,27.5,17.047,49.224,59.994,34.517,96.556Z" transform="translate(0 0.031)" fill="#fff" fill-rule="evenodd"/>
        <path id="Path_11" data-name="Path 11" d="M336.17,138.845V70.262h10.676v6.929a17.031,17.031,0,0,1,6.4-5.387,19.126,19.126,0,0,1,8.627-1.927,19.638,19.638,0,0,1,8.56,1.927,21.589,21.589,0,0,1,6.975,5.239,24.927,24.927,0,0,1,4.618,7.791,27.014,27.014,0,0,1,1.69,9.574,26.575,26.575,0,0,1-1.732,9.616,23.076,23.076,0,0,1-12.02,12.987,20.7,20.7,0,0,1-8.881,1.927,18.75,18.75,0,0,1-7.837-1.635,17.972,17.972,0,0,1-6.206-4.618v26.165Zm22.392-59.829a15.345,15.345,0,0,0-6.494,1.348A13.591,13.591,0,0,0,347.02,84.4v20.1a14.787,14.787,0,0,0,5.133,3.9,15.015,15.015,0,0,0,6.443,1.394,13.431,13.431,0,0,0,10.229-4.377,15.472,15.472,0,0,0,4.085-11.01,15.515,15.515,0,0,0-4.136-10.985,13.4,13.4,0,0,0-10.195-4.407Z" transform="translate(-194.142 -40.341)" fill="#fff"/>
        <path id="Path_12" data-name="Path 12" d="M514.377,111.748a31.975,31.975,0,0,1-8.995,5.374,28.442,28.442,0,0,1-10.14,1.732,24.34,24.34,0,0,1-9.624-1.91,23.629,23.629,0,0,1-7.791-5.29,25.666,25.666,0,0,1-7.119-17.8A26.917,26.917,0,0,1,472.487,84a24.18,24.18,0,0,1,4.905-7.888,22.958,22.958,0,0,1,16.785-7.182,21.969,21.969,0,0,1,16.3,7.022,23.787,23.787,0,0,1,4.762,7.841,27.883,27.883,0,0,1,1.732,9.954v2.691H481.393a15.172,15.172,0,0,0,4.859,9.43,13.714,13.714,0,0,0,9.569,3.747,17.157,17.157,0,0,0,6.4-1.2,13.988,13.988,0,0,0,5.07-3.321ZM494.068,77.8a11.3,11.3,0,0,0-8.175,3.27,15.439,15.439,0,0,0-4.326,8.754h25.1a15.772,15.772,0,0,0-4.377-8.657A11.285,11.285,0,0,0,494.068,77.8Z" transform="translate(-271.838 -39.793)" fill="#fff"/>
        <path id="Path_13" data-name="Path 13" d="M645.519,111.731a32.015,32.015,0,0,1-8.991,5.374,28.467,28.467,0,0,1-10.14,1.732,24.34,24.34,0,0,1-9.62-1.922,23.66,23.66,0,0,1-7.791-5.29,25.666,25.666,0,0,1-7.119-17.8,26.919,26.919,0,0,1,1.783-9.861,24.041,24.041,0,0,1,4.905-7.888A22.937,22.937,0,0,1,625.328,68.9a21.97,21.97,0,0,1,16.3,7.051,23.786,23.786,0,0,1,4.761,7.841,27.791,27.791,0,0,1,1.732,9.954v2.691H612.531a15.146,15.146,0,0,0,4.854,9.43,13.714,13.714,0,0,0,9.569,3.747,17.145,17.145,0,0,0,6.4-1.2,14.006,14.006,0,0,0,5.07-3.321ZM625.239,77.78a11.3,11.3,0,0,0-8.175,3.27,15.462,15.462,0,0,0-4.331,8.754h25.1a15.772,15.772,0,0,0-4.377-8.657,11.281,11.281,0,0,0-8.226-3.367Z" transform="translate(-347.579 -39.776)" fill="#fff"/>
        <path id="Path_14" data-name="Path 14" d="M737.53,117.766V69.576H748.4V80.063a19.037,19.037,0,0,1,5.336-8.416,11.83,11.83,0,0,1,7.939-2.957,23.891,23.891,0,0,1,2.4.292,12.721,12.721,0,0,1,2.307.684V79.2a11.872,11.872,0,0,0-2.835-.845,17.709,17.709,0,0,0-3.126-.287,12.379,12.379,0,0,0-7.022,2.112,14.479,14.479,0,0,0-5,5.864v31.742Z" transform="translate(-425.931 -39.655)" fill="#fff"/>
        <path id="Path_15" data-name="Path 15" d="M841.276,109.4a15.826,15.826,0,0,0,6.489-1.344,13.76,13.76,0,0,0,5.129-3.946l6.544,6.54a24.132,24.132,0,0,1-8.369,6.109,25.227,25.227,0,0,1-10.486,2.26,24.023,24.023,0,0,1-17.322-7.212,24.683,24.683,0,0,1-5.146-7.985,25.828,25.828,0,0,1-1.876-9.81,25.453,25.453,0,0,1,1.876-9.764A24.082,24.082,0,0,1,840.6,69.2a27.234,27.234,0,0,1,10.63,2.112,24.5,24.5,0,0,1,8.61,5.961L853.106,84.3a17.41,17.41,0,0,0-5.577-4.225,15.21,15.21,0,0,0-6.544-1.445,12.742,12.742,0,0,0-9.81,4.474,16.811,16.811,0,0,0-.013,21.877,13.1,13.1,0,0,0,10.114,4.423Z" transform="translate(-471.386 -39.95)" fill="#fff"/>
        <path id="Path_17" data-name="Path 17" d="M1076.879,29.285a6.545,6.545,0,0,1-4.757-1.931,6.338,6.338,0,0,1-1.973-4.715,6.451,6.451,0,0,1,2.019-4.711,6.452,6.452,0,0,1,4.711-2.019,6.57,6.57,0,0,1,4.812,2.02,6.469,6.469,0,0,1,2.02,4.711,6.337,6.337,0,0,1-1.973,4.715A6.676,6.676,0,0,1,1076.879,29.285Zm5.492,9.81V87.285H1071.5V39.1Z" transform="translate(-618.021 -9.175)" fill="#fff"/>
        <path id="Path_18" data-name="Path 18" d="M1130.71,117.926V69.737h10.866v7.888a18.876,18.876,0,0,1,6.578-6.443,17.323,17.323,0,0,1,8.7-2.214,15.881,15.881,0,0,1,11.978,4.859,17.036,17.036,0,0,1,4.647,12.358v31.742h-10.871V89.26a11.958,11.958,0,0,0-2.886-8.37,9.894,9.894,0,0,0-7.693-3.173,11.829,11.829,0,0,0-5.915,1.491,13.766,13.766,0,0,0-4.572,4.28v34.433Z" transform="translate(-652.996 -39.816)" fill="#fff"/>
      </g>
    </g>
    <g id="Layer_2-2" data-name="Layer 2" transform="translate(1097.306 147.859)">
      <g id="Object" transform="translate(0 0)">
        <path id="Path_24" data-name="Path 24" d="M49.193,24.268H46.98l1.583-1.585a.827.827,0,0,0-1.169-1.169l-2.755,2.755H41.911l2.459-2.457A.828.828,0,0,0,43.2,20.64l-3.628,3.628H27.1l2.309-2.307,7.968-.719a.827.827,0,1,0-.148-1.648l-5.995.541L35.769,15.6l2.547,2.546a.827.827,0,1,0,1.169-1.169l-2.549-2.547L38,13.365l1.914,1.914a.828.828,0,0,0,1.171-1.169L39.169,12.2l1.061-1.061,1.23,1.23A.828.828,0,0,0,42.63,11.2L41.4,9.965,42.72,8.643A.828.828,0,1,0,41.551,7.48L40.228,8.8,39,7.572a.827.827,0,0,0-1.169,1.169l1.232,1.232L38,11.035,36.083,9.121a.828.828,0,0,0-1.171,1.169L36.826,12.2l-1.061,1.061-2.546-2.554a.827.827,0,0,0-1.169,1.169L34.6,14.427l-4.538,4.538.539-5.993a.827.827,0,1,0-1.648-.148l-.717,7.968L25.925,23.1V10.623l3.628-3.628a.828.828,0,1,0-1.169-1.171L25.925,8.282V5.566L28.679,2.81A.827.827,0,0,0,27.51,1.641L25.925,3.217V1A.828.828,0,0,0,24.27,1V3.217L22.685,1.632A.827.827,0,1,0,21.516,2.8l2.753,2.765V8.282L21.811,5.824A.828.828,0,0,0,20.64,6.995l3.628,3.628V23.1L21.961,20.79l-.719-7.966a.827.827,0,0,0-1.648.148l.541,5.993L15.6,14.427l2.546-2.546a.828.828,0,0,0-1.171-1.169l-2.546,2.546L13.365,12.2l1.914-1.914A.827.827,0,0,0,14.11,9.112L12.2,11.026,11.134,9.965l1.23-1.232A.827.827,0,0,0,11.2,7.564L9.963,8.794,8.643,7.48A.828.828,0,1,0,7.48,8.643L8.8,9.965,7.572,11.2a.827.827,0,0,0,1.169,1.169l1.222-1.23L11.025,12.2,9.111,14.11a.827.827,0,1,0,1.169,1.169l1.914-1.914,1.061,1.061-2.544,2.547a.827.827,0,1,0,1.169,1.169L14.427,15.6l4.538,4.538-5.993-.541a.827.827,0,0,0-.148,1.648l7.966.719L23.1,24.268H10.623L6.995,20.64a.828.828,0,0,0-1.171,1.171l2.459,2.457H5.566L2.8,21.514a.827.827,0,1,0-1.169,1.169l1.585,1.585H1a.828.828,0,0,0,0,1.655H3.217L1.632,27.508A.827.827,0,0,0,2.8,28.678l2.765-2.753H8.282L5.824,28.382a.828.828,0,0,0,1.171,1.169l3.628-3.626H23.1L20.79,28.234l-7.966.717a.827.827,0,1,0,.148,1.648l5.993-.539L14.427,34.6,11.881,32.05a.827.827,0,0,0-1.169,1.169l2.546,2.546L12.2,36.826l-1.914-1.914a.827.827,0,0,0-1.169,1.169L11.026,38,9.965,39.057l-1.232-1.23A.828.828,0,1,0,7.564,39l1.23,1.23L7.48,41.551A.828.828,0,0,0,8.651,42.72L9.972,41.4,11.2,42.63a.828.828,0,0,0,1.169-1.171l-1.23-1.23L12.2,39.167l1.914,1.914a.827.827,0,0,0,1.169-1.171L13.365,38l1.061-1.061,2.546,2.546a.828.828,0,1,0,1.171-1.169L15.6,35.765l4.538-4.538-.541,5.995a.83.83,0,0,0,.75.9h.075a.827.827,0,0,0,.823-.753l.719-7.961L24.268,27.1V39.574L20.64,43.2a.828.828,0,0,0,1.171,1.169l2.457-2.457v2.725l-2.755,2.755a.828.828,0,1,0,1.169,1.171l1.585-1.585V49.2a.828.828,0,0,0,1.655,0V46.98l1.585,1.585a.828.828,0,1,0,1.169-1.171l-2.753-2.758V41.911l2.457,2.459A.827.827,0,1,0,29.551,43.2l-3.626-3.63V27.094l2.307,2.311.717,7.968a.828.828,0,0,0,.823.753h.075a.827.827,0,0,0,.75-.9l-.539-5.995L34.6,35.772l-2.546,2.54a.827.827,0,0,0,1.169,1.169l2.546-2.546L36.826,38l-1.914,1.914a.828.828,0,0,0,1.171,1.171L38,39.169l1.061,1.061-1.232,1.23a.828.828,0,0,0,.585,1.413A.82.82,0,0,0,39,42.631L40.228,41.4l1.322,1.322a.827.827,0,1,0,1.169-1.169L41.4,40.23,42.63,39a.828.828,0,0,0-1.171-1.171l-1.23,1.232L39.167,38l1.914-1.914a.828.828,0,0,0-1.171-1.169L38,36.83l-1.061-1.061,2.546-2.546a.827.827,0,0,0-1.169-1.169L35.763,34.6l-4.538-4.538,5.995.539a.827.827,0,1,0,.148-1.648l-7.963-.72-2.311-2.307H39.571L43.2,29.553a.827.827,0,1,0,1.169-1.169l-2.457-2.459h2.725l2.755,2.755A.827.827,0,1,0,48.56,27.51l-1.58-1.585H49.2a.828.828,0,0,0,0-1.655Z" transform="translate(-0.208 -0.208)" fill="#fff" stroke="#fff" stroke-width="1"/>
      </g>
    </g>
  </g>
</svg>
