<svg xmlns="http://www.w3.org/2000/svg" width="135.347" height="194.889" viewBox="0 0 135.347 194.889">
  <g id="Layer_2" data-name="Layer 2" transform="translate(0.011 -0.004)">
    <g id="Layer_1" data-name="Layer 1" transform="translate(-0.011 0.004)">
      <path id="Path_19" data-name="Path 19" d="M123.14,91.158c3.606-4.054,4.542-9.044,2.935-15.713-.576-2.4-2.295-4-3.806-5.349s-2.735-2.495-2.775-4.118c0-.688,0-1.367-.04-2.047,0-3.59-.08-7.309-1.663-10.891q-1.375-3.143-2.8-6.269c-.968-2.159-1.935-4.31-2.879-6.469a11.994,11.994,0,0,1,.68-11.515c.68-1.167.8-1.271,2.263-.672a14.393,14.393,0,0,0,17.176-4.422,14.635,14.635,0,1,0-26.092-7.972,7.8,7.8,0,0,1,0,1.223,3.662,3.662,0,0,1-.8,0c-1.871-.2-3.766-.328-5.6-.464-2.463-.168-5.014-.352-7.484-.68-2.655-.36-5.349-.8-7.948-1.231-8.8-1.447-17.872-2.943-27.187-1.447-29.77,4.8-46.858,25.22-43.531,52.135.168,1.367-.168,2.055-1.6,3.2C6.651,72.87,3.34,80.923,7.722,87.16c3.382,4.8,2.079,8.108-.336,13.034A54.206,54.206,0,0,0,4.8,107.054c-6.093,18.207-6.4,33.36-.888,47.682,9.2,24.053,34.272,40.157,62.459,40.157h.32a83.721,83.721,0,0,0,20.4-2.815,62.163,62.163,0,0,0,32.889-20.854,56.621,56.621,0,0,0,12.93-35.5c.16-15.745-5.333-29.858-10.131-40.389C121.884,93.365,121.836,92.669,123.14,91.158Zm4,55.822a49.5,49.5,0,0,1-21.83,31.625c-23.469,15.089-47.618,16.16-71.79,3.2C8.642,168.441-1.018,142.622,7.674,112.82a119.52,119.52,0,0,1,6.333-16.56c.424-.92.616-1.1.688-1.135h0a1.743,1.743,0,0,1,.8.288c2.1,1.175,4.3,1.071,6.4.96h.8c-3,8.436-4.158,15.841-3.654,23.189.048.7.048.752-1.071.888a12.466,12.466,0,0,1-6.445-.752c-2.039-.856-3.135,0-3.606.6a3.105,3.105,0,0,0,0,3.486c4.758,10.4,21.15,27.947,39.277,23.629a31.1,31.1,0,0,0,11.595-5.6l.264-.2c1.3-.984,1.5-1.135,2.559-.32a6.733,6.733,0,0,0,7.828.3c1.343-.9,1.879-.8,3.582.456,9.22,7,19.495,7.916,29.722,2.655a45.986,45.986,0,0,0,19.991-19.927,4.876,4.876,0,0,1,.3-.5c.528-.8,1.6-2.463,0-4.1a3.025,3.025,0,0,0-3.55-.424,5.473,5.473,0,0,1-.576.2,17.984,17.984,0,0,1-2.927.56c-1.072.1-3.063.272-3.454-.088s-.36-2.4-.344-3.454a57.032,57.032,0,0,0-4-21.094c3.43.8,6.469.928,9.508-.432h.1a4.567,4.567,0,0,1,.376.7C125.275,111.508,131.24,128.38,127.138,146.979ZM78.945,18.1a142.926,142.926,0,0,0,26.731,3.2,3.75,3.75,0,0,1,3.366,1.751,3.742,3.742,0,0,1-.208,3.782,15.632,15.632,0,0,0-.952,14.825l1.943,4.326c1.127,2.511,2.295,5.11,3.406,7.676a32.92,32.92,0,0,1,1.5,4.342c.72,2.711,1.375,5.733-.064,7.309-.344.368-2.079-.448-3.015-.888a18.392,18.392,0,0,0-2.215-.928,145.18,145.18,0,0,0-42.892-6.573A146.331,146.331,0,0,0,20.06,64.642l-1.991.64c-2.879-22.965,9.915-40.709,33.688-46.49A62.211,62.211,0,0,1,78.945,18.1ZM47.511,62.7a164.938,164.938,0,0,1,17.832-1.375c18.159.184,34.456,3.1,49.84,8.948a11.043,11.043,0,0,1,7.2,11.674,10.907,10.907,0,0,1-8.132,9.827,9.907,9.907,0,0,1-5.6-.528,132.7,132.7,0,0,0-84.208-.088c-5.853,1.9-10.987-.432-13.082-5.957-2.271-5.965.216-12.378,5.645-14.593A128.218,128.218,0,0,1,47.511,62.7Zm17.168,72.206a10.768,10.768,0,0,0,.8-.8,12.033,12.033,0,0,0,1.223,1.119c1.479,1.231,1.5,1.431.9,2.223a2.183,2.183,0,0,1-1.783.8h0a2.535,2.535,0,0,1-2.023-.9C63.168,136.5,63.264,136.233,64.679,134.905Zm1.111-7.4a1.52,1.52,0,0,0-.432,0c-1.351.048-2.2,1.407-3.254,3.326-3.63,6.653-9.436,11-16.336,12.25-7.532,1.359-15.441-1.135-22.3-7.053a45.459,45.459,0,0,1-9.739-11.115c5.6.8,9.883-1.767,14.081-4.238l.72-.424c6.517-3.822,13.258-7.764,21.158-8.26,3.87-.248,6.573-.136,8.676,3.486a8.052,8.052,0,0,0,7.2,3.806h0a8.516,8.516,0,0,0,7.46-4.054c1.823-3.2,4.206-3.406,7.628-3.318,4.238.1,8.556,1.311,13.594,3.814a106.613,106.613,0,0,1,9.675,5.254c3.694,2.343,8,4.686,13.594,3.886-5.214,8.212-11.587,13.77-19.415,16.952-10.739,4.358-21.846.192-28.994-10.875-1.079-1.671-1.879-2.847-2.831-3.27Zm40.549-10.4c-6.733-3.862-13.09-7.516-20.478-9.124a29.177,29.177,0,0,0-6.3-.616c-.624,0-1.263,0-1.935.04a8.669,8.669,0,0,0-7.82,4.566,4.878,4.878,0,0,1-4.158,2.719h0a5.078,5.078,0,0,1-4.3-2.815c-2.119-3.622-5.294-4.3-7.82-4.494-5.989-.44-11.85.944-19.015,4.494-2.863,1.423-5.645,2.959-8.588,4.582l-2.479,1.367c-.256-7.381,1.263-14.673,4.678-22.757.216-.512.592-.648,1.543-.872l.648-.16a130.067,130.067,0,0,1,69.9-.76,4.3,4.3,0,0,1,3.374,2.927,56.677,56.677,0,0,1,4.19,21.742Zm4.15-102.464a10.4,10.4,0,0,1,10.251-10.2h0a10.4,10.4,0,0,1,10.227,10.235,10.4,10.4,0,0,1-3.095,7.2,10.091,10.091,0,0,1-7.117,3.015h0A10.4,10.4,0,0,1,110.49,14.658Z" transform="translate(0.011 -0.004)" fill="#fff"/>
      <path id="Path_20" data-name="Path 20" d="M58.727,118.4a3.91,3.91,0,0,0-2.935,1,5.874,5.874,0,0,0-1.5,4.334c-.048,2.151.392,3.67,1.351,4.654a4,4,0,0,0,3.015,1.159h0c2.711,0,4.334-2.079,4.334-5.6S61.446,118.5,58.727,118.4Zm0,7.868c-.888,0-1.6-1.071-1.6-2.4s.712-2.4,1.6-2.4,1.6,1.072,1.6,2.4-.744,2.4-1.623,2.4Z" transform="translate(-10.869 -23.725)" fill="#fff"/>
      <path id="Path_21" data-name="Path 21" d="M102.727,118.3a3.91,3.91,0,0,0-2.935,1,5.874,5.874,0,0,0-1.5,4.334c-.048,2.151.392,3.67,1.351,4.654a4,4,0,0,0,3.015,1.159h0c2.711,0,4.334-2.079,4.334-5.6S105.446,118.4,102.727,118.3Zm0,7.868c-.888,0-1.6-1.079-1.6-2.4s.712-2.4,1.6-2.4,1.6,1.071,1.6,2.4-.744,2.4-1.623,2.4Z" transform="translate(-19.686 -23.704)" fill="#fff"/>
    </g>
  </g>
</svg>
