<svg xmlns="http://www.w3.org/2000/svg" xmlns:xlink="http://www.w3.org/1999/xlink" width="39.045" height="59.819" viewBox="0 0 39.045 59.819">
  <defs>
    <clipPath id="clip-path">
      <rect id="Rectangle_4" data-name="Rectangle 4" width="39.045" height="59.819" fill="#fff"/>
    </clipPath>
  </defs>
  <g id="Group_7" data-name="Group 7" style="isolation: isolate">
    <g id="Group_6" data-name="Group 6" clip-path="url(#clip-path)">
      <path id="Path_47" data-name="Path 47" d="M26.846,23.187l-5.8-5.765-.007-.007a2.148,2.148,0,0,0-3.016,0l-5.809,5.772L6.6,28.759a1.122,1.122,0,0,1-.088.083A2.146,2.146,0,0,0,7.912,32.62H31a1.237,1.237,0,0,1,.152-.01,2.135,2.135,0,0,0,1.508-3.651Zm-.083,11.8H12.3l-1.939,1.926-6.89,6.845a1.131,1.131,0,0,1-.088.084,2.927,2.927,0,0,0-.753,1A2.915,2.915,0,0,0,3.216,48.1l0,0a2.9,2.9,0,0,0,2.055.848H33.625a1.129,1.129,0,0,1,.168-.012A2.891,2.891,0,0,0,35.834,44L28.7,36.912ZM21.527,51.318H16.8v3.965a2.179,2.179,0,0,0,2.17,2.17h.391a2.18,2.18,0,0,0,2.17-2.17Zm-1.62-28.986a1.18,1.18,0,1,1,1.664-1.673l.649.645a1.179,1.179,0,0,1-1.664,1.672Zm3.226,3.205A1.179,1.179,0,0,1,24.8,23.865l3.968,3.942A1.18,1.18,0,1,1,27.1,29.48ZM21.064,4.491,19.525,2.884,18.012,4.463a1.178,1.178,0,0,1-.364.273l-2,.966L16.7,7.659h0a1.181,1.181,0,0,1,.13.4l.3,2.2L19.3,9.871a1.169,1.169,0,0,1,.433,0l2.189.395.294-2.154a1.183,1.183,0,0,1,.136-.449L23.4,5.7l-2-.966h0a1.179,1.179,0,0,1-.337-.245M20.375.362,22.618,2.7l2.919,1.41a1.18,1.18,0,0,1,.55,1.576l-.024.046h0L24.531,8.592,24.093,11.8a1.179,1.179,0,0,1-1.326,1.012c-.036,0-.071-.011-.106-.019l-3.136-.566-3.191.576a1.179,1.179,0,0,1-1.368-.952l-.008-.051h0l-.438-3.206L12.985,5.735a1.181,1.181,0,0,1,.481-1.6c.023-.012.046-.024.069-.034l2.9-1.4L18.674.362A1.179,1.179,0,0,1,20.342.329l.032.033Zm2.389,15.444,5.746,5.708,5.809,5.772a4.5,4.5,0,0,1-2.993,7.687,1.185,1.185,0,0,1-.178.014H30.111l.255.253L37.5,42.325A5.256,5.256,0,0,1,33.984,51.3a1.2,1.2,0,0,1-.191.015h-9.9v3.965a4.546,4.546,0,0,1-4.536,4.536h-.391a4.547,4.547,0,0,1-4.536-4.536V51.318H5.268a5.248,5.248,0,0,1-3.72-1.543l0,0,0,0a5.263,5.263,0,0,1,.272-7.7L8.7,35.239l.256-.253H7.912a4.508,4.508,0,0,1-2.96-7.91l5.6-5.562,5.809-5.771a4.489,4.489,0,0,1,6.267-.074,1.224,1.224,0,0,1,.139.137" transform="translate(0 0)" fill="#fff"/>
    </g>
  </g>
</svg>
